# Made in Blockbench 4.7.2
mtllib cheese.mtl

o cube
v 0.6950825214724776 0.5700825214724776 0.676776695296637
v 0.5075825214724776 0.7575825214724776 0.4116116523516815
v 0.7575825214724776 0.5075825214724776 0.5883883476483185
v 0.5700825214724776 0.6950825214724776 0.32322330470336313
v 0.24241747852752238 0.4924174785275224 0.4116116523516815
v 0.4299174785275224 0.3049174785275224 0.676776695296637
v 0.3049174785275224 0.4299174785275224 0.32322330470336313
v 0.4924174785275224 0.24241747852752238 0.5883883476483183
vt 0.375 1
vt 0.75 1
vt 0.75 0.875
vt 0.375 0.875
vt 0.375 0.875
vt 0.75 0.875
vt 0.75 0.75
vt 0.375 0.75
vt 0.375 0.75
vt 0.75 0.75
vt 0.75 0.625
vt 0.375 0.625
vt 0.375 0.625
vt 0.75 0.625
vt 0.75 0.5
vt 0.375 0.5
vt 0.375 0.625
vt 0 0.625
vt 0 1
vt 0.375 1
vt 0.375 0.625
vt 0 0.625
vt 0 0.25
vt 0.375 0.25
vn -0.5000000000000001 0.5000000000000001 -0.7071067811865476
vn 0.7071067811865475 0.7071067811865476 0
vn 0.5000000000000001 -0.5000000000000001 0.7071067811865476
vn -0.7071067811865475 -0.7071067811865476 0
vn -0.5 0.5 0.7071067811865476
vn 0.5 -0.5 -0.7071067811865476
usemtl m_cdaf725b-c014-6e84-0212-03660f359c4a
f 4/4/1 7/3/1 5/2/1 2/1/1
f 3/8/2 4/7/2 2/6/2 1/5/2
f 8/12/3 3/11/3 1/10/3 6/9/3
f 7/16/4 8/15/4 6/14/4 5/13/4
f 6/20/5 1/19/5 2/18/5 5/17/5
f 7/24/6 4/23/6 3/22/6 8/21/6